PathFileType	4	(X/Y/Z)	Patient4_TMGait_0pt2_02_left_07.trc.trc
DataRate	CameraRate	NumFrames	NumMarkers	Units	OrigDataRate	OrigDataStartFrame	OrigNumFrames
42.682926829268	42.682926829268	4	33	mm	42.682926829268	18	       141
Frame#	Time	R.Midfoot.Superior			Sacral			L.Shoulder			Chest			R.Shoulder			Neck			R.ASIS			L.ASIS			R.Thigh.Superior			R.Thigh.Lateral			R.Thigh.Inferior			R.Patella			L.Thigh.Superior			L.Thigh.Lateral			L.Thigh.Inferior			L.Patella			L.Shank.Superior			L.Shank.Lateral			L.Shank.Inferior			R.Shank.Superior			R.Shank.Lateral			R.Shank.Inferior			R.Heel			R.Midfoot.Lateral			R.Toe			L.Heel			L.Midfoot.Lateral			L.Midfoot.Superior			L.Toe			L.Elbow			L.Wrist			R.Elbow			R.Wrist			
		X1	Y1	Z1	X2	Y2	Z2	X3	Y3	Z3	X4	Y4	Z4	X5	Y5	Z5	X6	Y6	Z6	X7	Y7	Z7	X8	Y8	Z8	X9	Y9	Z9	X10	Y10	Z10	X11	Y11	Z11	X12	Y12	Z12	X13	Y13	Z13	X14	Y14	Z14	X15	Y15	Z15	X16	Y16	Z16	X17	Y17	Z17	X18	Y18	Z18	X19	Y19	Z19	X20	Y20	Z20	X21	Y21	Z21	X22	Y22	Z22	X23	Y23	Z23	X24	Y24	Z24	X25	Y25	Z25	X26	Y26	Z26	X27	Y27	Z27	X28	Y28	Z28	X29	Y29	Z29	X30	Y30	Z30	X31	Y31	Z31	X32	Y32	Z32	X33	Y33	Z33	

18	16.018285714286	910.279845327463	96.866775436706	611.588695004423	787.277302747109	1010.794100597593	605.319537858869	964.161823510679	1418.296395527532	377.255355232228	1089.904389274491	1342.484930756744	517.685740068341	1051.719852458515	1430.285884957249	699.546292254354	980.545113853044	1484.020044144308	530.200575852868	1026.600013054976	925.253946620638	679.221402298561	969.245747673903	955.468929204098	412.193473861628	1049.023280953793	722.366075452233	629.249491446664	971.639903941000	611.951317577948	691.485466490972	1030.676069648589	562.647365257286	595.128726179466	1025.875037989639	468.414164381081	595.907964993873	1046.945632253175	774.775682580703	440.858241124622	998.019368017201	647.990608446230	361.358545982690	1097.069149947151	585.546616005803	424.952645866412	1120.168553151654	513.752952293417	416.103198083254	1088.785575602742	441.697830238626	399.848098867517	998.426816494277	331.998756916902	339.809468123031	1062.689636209590	213.621463106426	387.264044971427	975.717666555369	385.304766620073	605.643761487811	893.403862895214	295.395337178187	674.541834541401	902.409531287758	198.579912396208	604.541077506849	734.512176402952	51.381156096893	588.251691936915	822.360262370917	41.070744971551	656.489854225909	1029.105981081323	39.163055858016	633.082361506299	944.319322588496	51.121043494092	414.610320213855	1018.847783461337	47.654268529454	335.132420917588	1101.899682090605	111.750946570114	359.757034831091	1228.949729946477	63.002460714542	331.126726590353	778.178488790447	1114.281774801171	313.147367079835	702.561725510028	873.032624000270	383.727862402333	1196.027257051516	1129.113903878335	831.922811011488	1445.866441870018	1089.006251789386	778.194827290321	
19	16.041714285714	905.347757840262	96.750581752705	611.520110315555	787.678802523792	1011.198585916349	604.788072147039	960.654703366931	1419.676424663413	376.051247028528	1088.489125405385	1343.504772602208	514.466026703747	1052.635672597380	1430.846455138991	696.905988672763	978.969055016181	1484.768447374562	528.937411410437	1027.427909984886	925.375010508271	676.149773001542	967.672907844351	956.336877745714	409.661895498383	1046.718454396881	721.668166776287	626.917242929136	968.489782455794	612.242284700468	690.436688936009	1026.128894168405	561.934348216110	594.037638907162	1020.082269099297	468.184867376357	595.285732364668	1043.890537901352	773.877752965552	436.649428226014	992.478526176679	647.285355422732	358.205940630913	1091.888654589319	584.597921506419	420.602413471992	1114.937836457098	514.820289292341	412.846072794757	1087.280959329889	442.857357143639	397.072499626821	1003.037609311121	327.808692169522	336.777831214716	1073.386272995617	212.776131079789	385.346225254139	970.242005892238	385.275811788724	605.358802562673	888.069622077289	295.334836759527	674.361389927120	897.256137191252	198.445258303962	604.444650436055	729.675021194329	50.870555083807	588.217375727377	817.540457413632	40.825077103358	656.482214097300	1024.310489969774	39.238867762560	633.082928192324	962.456935584461	45.643395342174	412.799438937876	1038.060773678908	43.458228157011	334.187809234233	1118.803880710762	110.733846886789	358.892609099788	1248.000727001455	65.604841231516	332.493207363562	771.470589847468	1118.216623893515	314.740792197930	693.893162344970	878.009070514749	387.293173428626	1209.091866497666	1135.913653460639	824.584724238220	1459.749136586438	1114.342106090535	764.420554889021	
20	16.065142857143	900.443825474776	96.648467293856	611.461891571524	788.353095036355	1011.292828691509	603.738583401720	957.503187171735	1420.645696052475	374.360566703884	1087.268971973761	1344.313483581772	510.956405377874	1053.409382679793	1431.182694987449	693.884133956010	977.566008688148	1485.245175351654	527.200797947251	1028.520899143939	925.359577195946	672.884525949666	966.589355530092	956.787026794647	406.894718235080	1044.831831850905	720.875082074102	624.423042872822	965.751315269171	612.401158153677	689.165312351890	1022.026504559913	561.114673830676	592.780758838761	1014.726967847617	467.806837644614	594.483442392816	1041.417274146938	772.529215500868	432.254310892805	987.237235182218	646.040709670920	355.199469190148	1087.139680332414	583.157891538484	416.256606451130	1109.671782123127	515.033701788991	409.705154765328	1085.223905232990	443.290455695493	394.367837576094	1006.085849834380	324.097734392861	334.189510177237	1081.325311984451	212.138377907327	383.681216067413	965.140959707508	385.131175511222	604.914475060949	883.023355927902	295.254886270034	674.087445192713	892.247843573346	198.261169983617	604.291141977730	724.848681431961	50.419727882269	588.199361078490	812.726973732447	40.602065473533	656.480653521888	1019.516383996055	39.307884101394	633.080429852359	976.561883945252	41.869045334460	411.516390103179	1052.835817797047	40.624383571817	333.467262661279	1131.778035943691	110.107888852582	358.161277236033	1262.385270924129	67.642233403093	333.327554773265	766.076830478527	1121.013037923921	315.761523012041	686.788448397398	881.608958619970	389.597698507342	1220.700784090866	1142.294769464756	816.789083679552	1470.751373736195	1137.795732354090	750.827807014001	
21	16.088571428571	895.585257773340	96.570784236842	611.426216823441	789.301231470254	1011.130751628300	602.162371096996	954.745732849159	1421.241353125720	372.143659458325	1086.277381558497	1344.936155182523	507.130256937610	1054.078443146153	1431.332177573138	690.461953422725	976.358693997748	1485.485923486763	524.938542643408	1029.883773405574	925.249737238701	669.436817368760	966.008876511484	956.863996428303	403.893269681125	1043.391321333576	720.011088025164	621.796771170702	963.426964802358	612.462095350664	687.675003891262	1018.392197986085	560.219679396303	591.371855287863	1009.840491579487	467.310199772949	593.512309083723	1039.614438009357	770.865559374248	427.789222577340	982.496370472579	644.391041328548	352.410868028173	1082.980799407316	581.380109148664	412.046975749388	1104.585215568685	514.503133662752	406.748286251322	1082.790208180704	443.031551946298	391.795239592681	1007.598327107412	320.826207955768	332.098047730097	1086.540144982702	211.517158609096	382.322860301252	960.428472091763	384.903867499777	604.316118210763	878.278892012288	295.196601481310	673.733431230494	887.399832998977	198.063918418986	604.094602755195	720.040518950612	50.081234369128	588.211141055452	807.928825496286	40.424446501867	656.495026132483	1014.729082382205	39.362179161926	633.076906251550	986.516288282368	39.451976288244	410.803530433889	1063.064814764986	38.859534694384	332.984886830878	1140.778391464857	109.624940177310	357.607100621485	1272.150329686016	68.874940296770	333.606117342230	761.933857259226	1122.764725032645	316.042353613889	681.165846806584	883.946618541904	390.546178748000	1230.871037120474	1148.176118087087	808.684308779025	1479.214812357117	1159.104215548704	737.551376288538	
